<?xml version="1.0" encoding="utf-8"?>
<!-- Generator: Adobe Illustrator 19.1.0, SVG Export Plug-In . SVG Version: 6.00 Build 0)  -->
<!DOCTYPE svg PUBLIC "-//W3C//DTD SVG 1.1//EN" "http://www.w3.org/Graphics/SVG/1.1/DTD/svg11.dtd">
<svg version="1.1" id="Layer_1" xmlns="http://www.w3.org/2000/svg" xmlns:xlink="http://www.w3.org/1999/xlink" x="0px" y="0px"
	 viewBox="0 0 100 100" enable-background="new 0 0 100 100" xml:space="preserve">
<g>
	<polygon opacity="0.4" fill="#FFFFFF" points="31,79.2 49.9,98.3 55.6,92.7 34.3,79.2 	"/>
	<polygon opacity="0.4" fill="#FFFFFF" points="85.5,63 98.2,50.4 92.9,45 85.5,56.8 	"/>
	<polygon opacity="0.6" fill="#FFFFFF" points="55.6,92.7 60.7,95.9 66.1,87.4 62.3,86 	"/>
	<polygon opacity="0.6" fill="#FFFFFF" points="92.9,45 97.1,38.4 90.4,34.2 88.2,40.3 	"/>
	<polygon opacity="0.4" fill="#FFFFFF" points="43.4,79.2 34.3,79.2 55.6,92.7 62.3,86 	"/>
	<polygon opacity="0.6" fill="#FFFFFF" points="43.4,79.2 34.3,79.2 55.6,92.7 62.3,86 	"/>
	<polygon opacity="0.4" fill="#FFFFFF" points="85.5,47.9 85.5,56.8 92.9,45 88.2,40.3 	"/>
	<polygon opacity="0.6" fill="#FFFFFF" points="85.5,47.9 85.5,56.8 92.9,45 88.2,40.3 	"/>
	<polygon opacity="0.8" fill="#FFFFFF" points="90.4,34.2 93.7,25 85.5,22 85.5,31.1 	"/>
	<polygon opacity="0.8" fill="#FFFFFF" points="66.1,87.4 70.8,89.1 74.3,79.2 71.3,79.2 	"/>
	<polygon opacity="0.6" fill="#FFFFFF" points="85.5,37.5 88.2,40.3 90.4,34.2 85.5,31.1 	"/>
	<polygon opacity="0.8" fill="#FFFFFF" points="85.5,37.5 88.2,40.3 90.4,34.2 85.5,31.1 	"/>
	<polygon opacity="0.6" fill="#FFFFFF" points="69.2,79.2 62.3,86 66.1,87.4 71.3,79.2 	"/>
	<polygon opacity="0.8" fill="#FFFFFF" points="69.2,79.2 62.3,86 66.1,87.4 71.3,79.2 	"/>
	<polygon opacity="0.4" fill="#FFFFFF" points="85.5,37.5 85.5,47.9 88.2,40.3 	"/>
	<polygon opacity="0.6" fill="#FFFFFF" points="85.5,37.5 85.5,47.9 88.2,40.3 	"/>
	<polygon opacity="0.8" fill="#FFFFFF" points="85.5,37.5 85.5,47.9 88.2,40.3 	"/>
	<polygon opacity="0.4" fill="#FFFFFF" points="69.2,79.2 43.4,79.2 62.3,86 	"/>
	<polygon opacity="0.6" fill="#FFFFFF" points="69.2,79.2 43.4,79.2 62.3,86 	"/>
	<polygon opacity="0.8" fill="#FFFFFF" points="69.2,79.2 43.4,79.2 62.3,86 	"/>
	<polygon opacity="0.4" fill="#FFFFFF" points="55.1,11.2 59.4,11.2 50.3,2 46.1,6.2 52.6,10.3 	"/>
	<polygon opacity="0.4" fill="#FFFFFF" points="31,79.2 49.9,98.3 55.5,92.7 34.3,79.2 	"/>
	<polygon opacity="0.4" fill="#FFFFFF" points="17.4,36.1 17.4,34.6 2,49.9 6.4,54.4 16.6,38.2 	"/>
	<polygon opacity="0.6" fill="#FFFFFF" points="46.1,6.2 39.6,2 37.7,4.9 44.8,7.5 	"/>
	<polygon opacity="0.4" fill="#FFFFFF" points="43.3,79.2 34.3,79.2 55.5,92.7 62.3,86 	"/>
	<polygon opacity="0.4" fill="#FFFFFF" points="52.6,10.3 46.1,6.2 44.8,7.5 	"/>
	<polygon opacity="0.6" fill="#FFFFFF" points="52.6,10.3 46.1,6.2 44.8,7.5 	"/>
	<polygon opacity="0.4" fill="#FFFFFF" points="16.6,38.2 6.4,54.4 9.7,57.7 	"/>
	<polygon opacity="0.6" fill="#FFFFFF" points="16.6,38.2 6.4,54.4 9.7,57.7 	"/>
	<polygon opacity="0.8" fill="#FFFFFF" points="7.9,62.6 6.7,66.1 17.4,70 17.4,68.6 	"/>
	<polygon opacity="0.8" fill="#FFFFFF" points="37.7,4.9 29.6,2 26.3,11.2 33.8,11.2 	"/>
	<polygon opacity="0.4" fill="#FFFFFF" points="17.4,37 17.4,36.1 16.6,38.2 	"/>
	<polygon opacity="0.8" fill="#FFFFFF" points="17.4,37 17.4,36.1 16.6,38.2 	"/>
	<polygon opacity="0.4" fill="#FFFFFF" points="54,11.2 55.1,11.2 52.6,10.3 	"/>
	<polygon opacity="0.8" fill="#FFFFFF" points="54,11.2 55.1,11.2 52.6,10.3 	"/>
	<polygon opacity="0.6" fill="#FFFFFF" points="41.1,11.2 44.8,7.5 37.7,4.9 33.8,11.2 	"/>
	<polygon opacity="0.8" fill="#FFFFFF" points="41.1,11.2 44.8,7.5 37.7,4.9 33.8,11.2 	"/>
	<polygon opacity="0.6" fill="#FFFFFF" points="17.4,65.5 9.7,57.7 7.9,62.6 17.4,68.6 	"/>
	<polygon opacity="0.8" fill="#FFFFFF" points="17.4,65.5 9.7,57.7 7.9,62.6 17.4,68.6 	"/>
	<polygon opacity="0.4" fill="#FFFFFF" points="44.8,7.5 41.1,11.2 54,11.2 52.6,10.3 	"/>
	<polygon opacity="0.6" fill="#FFFFFF" points="44.8,7.5 41.1,11.2 54,11.2 52.6,10.3 	"/>
	<polygon opacity="0.8" fill="#FFFFFF" points="44.8,7.5 41.1,11.2 54,11.2 52.6,10.3 	"/>
	<polygon opacity="0.4" fill="#FFFFFF" points="9.7,57.7 17.4,65.5 17.4,37 16.6,38.2 	"/>
	<polygon opacity="0.6" fill="#FFFFFF" points="9.7,57.7 17.4,65.5 17.4,37 16.6,38.2 	"/>
	<polygon opacity="0.8" fill="#FFFFFF" points="9.7,57.7 17.4,65.5 17.4,37 16.6,38.2 	"/>
	<g opacity="0.9">
		<path fill="#FFFFFF" d="M59.4,11.2h-4.3H54H41.1h-7.3h-7.4h-8.9v23.5v1.5V37v28.5v3V70v9.3H31h3.3h9h25.8h2.1h3h11.2V63v-6.3v-8.8
			V37.5v-6.4V22V11.2H59.4z M49.6,54.2c-1.1,0.4-2.2,0.6-3.2,0.8c-1,0.2-2.1,0.2-3.3,0.2c-2.8,0-4.9-0.8-6.4-2.5
			c-1.5-1.6-2.3-4-2.3-7c0-3,0.8-5.3,2.5-6.9c1.7-1.7,4-2.5,7-2.5c1.9,0,3.7,0.4,5.4,1.1l-1.1,2.5c-1.5-0.7-3-1-4.5-1
			c-2,0-3.5,0.6-4.6,1.8c-1.1,1.2-1.7,2.9-1.7,5c0,2.2,0.5,3.9,1.5,5.1c1,1.2,2.5,1.8,4.4,1.8c1,0,2-0.1,3.1-0.4v-4.7h-3.8V45h6.7
			V54.2z M61.8,54.9l-4.4-7.3h-3v7.3h-3V36.6h5.2c2.4,0,4.1,0.4,5.3,1.3c1.1,0.9,1.7,2.2,1.7,4c0,2.3-1.2,3.9-3.6,4.9l5.2,8.1H61.8z
			"/>
		<path fill="#FFFFFF" d="M59.5,39.8c-0.7-0.5-1.7-0.7-3.1-0.7h-2v6h2.1c1.4,0,2.4-0.3,3-0.8c0.6-0.5,0.9-1.3,0.9-2.3
			C60.5,41,60.2,40.2,59.5,39.8z"/>
	</g>
</g>
</svg>
